<svg width="19" height="20" viewBox="0 0 19 20" fill="none" xmlns="http://www.w3.org/2000/svg">
<g clip-path="url(#clip0_1_3214)">
<g filter="url(#filter0_ii_1_3214)">
<path fill-rule="evenodd" clip-rule="evenodd" d="M4.22086 2.08334C3.59493 2.08334 3.08752 2.59075 3.08752 3.21668V16.7833C3.08752 17.4093 3.59493 17.9167 4.22086 17.9167H14.7792C15.4051 17.9167 15.9125 17.4093 15.9125 16.7833V3.21668C15.9125 3.21546 15.9125 3.21425 15.9125 3.21304V6.04168L11.9542 2.08334H4.22086Z" fill="#32BD7A"/>
</g>
<g filter="url(#filter1_dd_1_3214)">
<path d="M7.72267 13.9583L9.49551 11.4137L11.2775 13.9583H12.1224L9.90539 10.8732L11.9627 8.02084H11.1179L9.49551 10.3326L7.881 8.02084H7.03649L9.07731 10.8732L6.87756 13.9583H7.72267Z" fill="white"/>
</g>
<path d="M15.5412 5.67056L12.3253 5.67056L15.9126 9.2578V6.04166L15.5412 5.67056Z" fill="url(#paint0_linear_1_3214)"/>
<path d="M13.0875 6.04166L15.9125 6.04166L11.9541 2.08332L11.9541 4.90832C11.9541 5.53425 12.4616 6.04166 13.0875 6.04166Z" fill="#EBFFEC"/>
</g>
<defs>
<filter id="filter0_ii_1_3214" x="3.08752" y="2.01251" width="12.825" height="15.975" filterUnits="userSpaceOnUse" color-interpolation-filters="sRGB">
<feFlood flood-opacity="0" result="BackgroundImageFix"/>
<feBlend mode="normal" in="SourceGraphic" in2="BackgroundImageFix" result="shape"/>
<feColorMatrix in="SourceAlpha" type="matrix" values="0 0 0 0 0 0 0 0 0 0 0 0 0 0 0 0 0 0 127 0" result="hardAlpha"/>
<feOffset dy="-0.141667"/>
<feGaussianBlur stdDeviation="0.0354167"/>
<feComposite in2="hardAlpha" operator="arithmetic" k2="-1" k3="1"/>
<feColorMatrix type="matrix" values="0 0 0 0 0 0 0 0 0 0 0 0 0 0 0 0 0 0 0.3 0"/>
<feBlend mode="normal" in2="shape" result="effect1_innerShadow_1_3214"/>
<feColorMatrix in="SourceAlpha" type="matrix" values="0 0 0 0 0 0 0 0 0 0 0 0 0 0 0 0 0 0 127 0" result="hardAlpha"/>
<feOffset dy="0.141667"/>
<feGaussianBlur stdDeviation="0.0354167"/>
<feComposite in2="hardAlpha" operator="arithmetic" k2="-1" k3="1"/>
<feColorMatrix type="matrix" values="0 0 0 0 1 0 0 0 0 1 0 0 0 0 1 0 0 0 0.3 0"/>
<feBlend mode="normal" in2="effect1_innerShadow_1_3214" result="effect2_innerShadow_1_3214"/>
</filter>
<filter id="filter1_dd_1_3214" x="5.87756" y="7.02084" width="14.2448" height="16.9375" filterUnits="userSpaceOnUse" color-interpolation-filters="sRGB">
<feFlood flood-opacity="0" result="BackgroundImageFix"/>
<feColorMatrix in="SourceAlpha" type="matrix" values="0 0 0 0 0 0 0 0 0 0 0 0 0 0 0 0 0 0 127 0" result="hardAlpha"/>
<feOffset dx="4" dy="6"/>
<feGaussianBlur stdDeviation="2"/>
<feColorMatrix type="matrix" values="0 0 0 0 0 0 0 0 0 0 0 0 0 0 0 0 0 0 0.1 0"/>
<feBlend mode="normal" in2="BackgroundImageFix" result="effect1_dropShadow_1_3214"/>
<feColorMatrix in="SourceAlpha" type="matrix" values="0 0 0 0 0 0 0 0 0 0 0 0 0 0 0 0 0 0 127 0" result="hardAlpha"/>
<feOffset/>
<feGaussianBlur stdDeviation="0.5"/>
<feColorMatrix type="matrix" values="0 0 0 0 0 0 0 0 0 0 0 0 0 0 0 0 0 0 0.4 0"/>
<feBlend mode="normal" in2="effect1_dropShadow_1_3214" result="effect2_dropShadow_1_3214"/>
<feBlend mode="normal" in="SourceGraphic" in2="effect2_dropShadow_1_3214" result="shape"/>
</filter>
<linearGradient id="paint0_linear_1_3214" x1="13.1294" y1="4.86653" x2="16.7166" y2="8.45377" gradientUnits="userSpaceOnUse">
<stop stop-opacity="0.2"/>
<stop offset="1" stop-opacity="0"/>
</linearGradient>
<clipPath id="clip0_1_3214">
<rect width="19" height="19" fill="white" transform="translate(0 0.5)"/>
</clipPath>
</defs>
</svg>
