<svg width="14" height="14" viewBox="0 0 14 14" fill="none" xmlns="http://www.w3.org/2000/svg">
<path d="M4.08341 9.91666H9.91675V12.8333H4.08341V9.91666ZM11.0834 11.6667V8.75H2.91675V11.6667H1.75008C1.42792 11.6667 1.16675 11.4055 1.16675 11.0833V5.25C1.16675 4.92783 1.42792 4.66666 1.75008 4.66666H12.2501C12.5723 4.66666 12.8334 4.92783 12.8334 5.25V11.0833C12.8334 11.4055 12.5723 11.6667 12.2501 11.6667H11.0834ZM2.91675 5.83333V7H4.66675V5.83333H2.91675ZM4.08341 1.16666H9.91675C10.2389 1.16666 10.5001 1.42783 10.5001 1.75V3.5H3.50008V1.75C3.50008 1.42783 3.76125 1.16666 4.08341 1.16666Z" fill="#6E7377"/>
</svg>
