<svg
width="19"
height="20"
viewBox="0 0 19 20"
fill="none"
xmlns="http://www.w3.org/2000/svg"
>
<g filter="url(#filter0_ii_1_205)">
  <path
    fill-rule="evenodd"
    clip-rule="evenodd"
    d="M4.35431 2.08374C3.65475 2.08374 3.08765 2.65084 3.08765 3.35041V16.6504C3.08765 17.35 3.65475 17.9171 4.35431 17.9171H14.646C15.3455 17.9171 15.9126 17.35 15.9126 16.6504V6.04204L11.9543 2.08374H4.35431Z"
    fill="#FA4E4E"
  />
</g>
<path
  d="M12.0714 12.7468C11.5372 12.7071 11.0228 12.5087 10.6072 12.1516C9.79598 12.3301 9.02421 12.588 8.25253 12.9055C7.63919 13.9967 7.06533 14.5523 6.57064 14.5523C6.47168 14.5523 6.35303 14.5325 6.27386 14.4729C6.05615 14.3738 5.9375 14.1555 5.9375 13.9373C5.9375 13.7586 5.97708 13.2627 7.8568 12.4491C8.29221 11.6555 8.62847 10.842 8.90556 9.98892C8.66806 9.51273 8.15367 8.34205 8.50972 7.74692C8.62847 7.52861 8.86597 7.40957 9.12327 7.42946C9.32108 7.42946 9.5189 7.52861 9.63765 7.68734C9.89494 8.04448 9.87515 8.79845 9.53869 9.90955C9.85536 10.5039 10.2701 11.0406 10.7655 11.4968C11.1811 11.4174 11.5965 11.3579 12.0121 11.3579C12.9421 11.3777 13.0806 11.8142 13.0608 12.0722C13.0608 12.7468 12.4078 12.7468 12.0714 12.7468ZM6.53115 13.9768L6.59053 13.957C6.86751 13.8579 7.08512 13.6595 7.24345 13.4015C6.94658 13.5205 6.70918 13.719 6.53115 13.9769V13.9768ZM9.16275 8.02469H9.10337C9.08358 8.02469 9.044 8.02469 9.02421 8.04448C8.94504 8.38173 9.00442 8.73887 9.14296 9.05633C9.26171 8.71908 9.26171 8.36194 9.16275 8.02469ZM9.30129 10.9016L9.2815 10.9412L9.26171 10.9214C9.08358 11.3778 8.88567 11.8341 8.66806 12.2706L8.70764 12.2508V12.2904C9.14766 12.1309 9.59701 11.9983 10.0532 11.8936L10.0334 11.8738H10.0928C9.79589 11.5761 9.5189 11.2389 9.30129 10.9016ZM11.9923 11.9531C11.8141 11.9531 11.6559 11.9531 11.4778 11.9927C11.6757 12.092 11.8736 12.1317 12.0714 12.1516C12.21 12.1713 12.3485 12.1516 12.4672 12.1119C12.4672 12.0523 12.388 11.9531 11.9923 11.9531Z"
  fill="white"
/>
<path
  d="M15.5411 5.67035H12.3252L15.9124 9.25759L15.9124 6.04144L15.5411 5.67035Z"
  fill="url(#paint0_linear_1_205)"
/>
<path
  d="M13.2209 6.04144L15.9126 6.04144L11.9543 2.08311L11.9543 4.77478C11.9543 5.47434 12.5214 6.04144 13.2209 6.04144Z"
  fill="#FDB8B8"
/>
<defs>
  <filter
    id="filter0_ii_1_205"
    x="3.08765"
    y="2.00457"
    width="12.825"
    height="15.9917"
    filterUnits="userSpaceOnUse"
    color-interpolation-filters="sRGB"
  >
    <feFlood flood-opacity="0" result="BackgroundImageFix" />
    <feBlend
      mode="normal"
      in="SourceGraphic"
      in2="BackgroundImageFix"
      result="shape"
    />
    <feColorMatrix
      in="SourceAlpha"
      type="matrix"
      values="0 0 0 0 0 0 0 0 0 0 0 0 0 0 0 0 0 0 127 0"
      result="hardAlpha"
    />
    <feOffset dy="-0.158333" />
    <feGaussianBlur stdDeviation="0.0395833" />
    <feComposite in2="hardAlpha" operator="arithmetic" k2="-1" k3="1" />
    <feColorMatrix
      type="matrix"
      values="0 0 0 0 0 0 0 0 0 0 0 0 0 0 0 0 0 0 0.3 0"
    />
    <feBlend
      mode="normal"
      in2="shape"
      result="effect1_innerShadow_1_205"
    />
    <feColorMatrix
      in="SourceAlpha"
      type="matrix"
      values="0 0 0 0 0 0 0 0 0 0 0 0 0 0 0 0 0 0 127 0"
      result="hardAlpha"
    />
    <feOffset dy="0.158333" />
    <feGaussianBlur stdDeviation="0.0395833" />
    <feComposite in2="hardAlpha" operator="arithmetic" k2="-1" k3="1" />
    <feColorMatrix
      type="matrix"
      values="0 0 0 0 1 0 0 0 0 1 0 0 0 0 1 0 0 0 0.3 0"
    />
    <feBlend
      mode="normal"
      in2="effect1_innerShadow_1_205"
      result="effect2_innerShadow_1_205"
    />
  </filter>
  <linearGradient
    id="paint0_linear_1_205"
    x1="13.1292"
    y1="4.86631"
    x2="16.7165"
    y2="8.45355"
    gradientUnits="userSpaceOnUse"
  >
    <stop stop-opacity="0.2" />
    <stop offset="1" stop-opacity="0" />
  </linearGradient>
</defs>
</svg>