<svg width="15" height="14" viewBox="0 0 15 14" fill="none" xmlns="http://www.w3.org/2000/svg">
<path d="M7.50079 1.20771C9.16466 -0.285833 11.7359 -0.23625 13.3386 1.3698C14.9413 2.97584 14.9964 5.53454 13.5058 7.20338L7.50001 13.2185L1.49439 7.20338C0.00382385 5.53454 0.0595413 2.9718 1.66154 1.3698C3.26536 -0.234018 5.83209 -0.28805 7.50079 1.20771ZM12.3359 2.37049C11.274 1.30646 9.55963 1.2633 8.44712 2.26195L7.50143 3.1108L6.55523 2.26262C5.43952 1.26256 3.72825 1.30656 2.66328 2.37153C1.60804 3.42676 1.55507 5.11684 2.52753 6.2331L7.50001 11.2135L12.4727 6.2331C13.4455 5.11641 13.3927 3.42955 12.3359 2.37049Z" fill="white"/>
</svg>
