<svg width="19" height="19" viewBox="0 0 19 19" fill="none" xmlns="http://www.w3.org/2000/svg">
<g clip-path="url(#clip0_1_192)">
<g filter="url(#filter0_ii_1_192)">
<path fill-rule="evenodd" clip-rule="evenodd" d="M11.9542 1.58334L15.9124 5.54157V16.15C15.9124 16.8496 15.3453 17.4167 14.6457 17.4167H4.35407C3.65451 17.4167 3.0874 16.8496 3.0874 16.15V2.85001C3.0874 2.15045 3.65451 1.58334 4.35407 1.58334H11.9542Z" fill="#F6AD00"/>
</g>
<g filter="url(#filter1_dd_1_192)">
<path d="M5.91417 13.0574L7.35688 10.9369C7.37535 10.9097 7.39957 10.8869 7.42782 10.8701C7.45608 10.8533 7.48767 10.843 7.52038 10.8398C7.55308 10.8365 7.58609 10.8405 7.61707 10.8515C7.64806 10.8624 7.67625 10.8801 7.69967 10.9031L8.65313 11.8373L10.7451 8.55831C10.7658 8.52577 10.7946 8.49912 10.8286 8.48094C10.8626 8.46276 10.9008 8.45366 10.9393 8.45453C10.9779 8.45539 11.0156 8.46619 11.0487 8.48588C11.0819 8.50557 11.1094 8.53348 11.1287 8.56692L13.7279 13.0715C13.7477 13.1056 13.7581 13.1443 13.7581 13.1837C13.7581 13.2231 13.7477 13.2618 13.728 13.296C13.7083 13.3301 13.68 13.3584 13.6458 13.3781C13.6117 13.3978 13.573 13.4081 13.5336 13.4081H6.09971C6.05887 13.4081 6.01878 13.3971 5.98377 13.376C5.94876 13.355 5.92016 13.3248 5.90105 13.2887C5.88195 13.2526 5.87306 13.212 5.87535 13.1712C5.87765 13.1305 5.89103 13.0911 5.91407 13.0574H5.91417Z" fill="white"/>
<path d="M6.34622 8.25599C6.34622 8.55595 6.46538 8.84363 6.67748 9.05573C6.88958 9.26783 7.17725 9.38699 7.47721 9.38699C7.77717 9.38699 8.06484 9.26783 8.27695 9.05573C8.48905 8.84363 8.60821 8.55595 8.60821 8.25599C8.60821 7.95604 8.48905 7.66836 8.27695 7.45626C8.06484 7.24416 7.77717 7.125 7.47721 7.125C7.17725 7.125 6.88958 7.24416 6.67748 7.45626C6.46538 7.66836 6.34622 7.95604 6.34622 8.25599Z" fill="white"/>
</g>
<path d="M15.5411 5.17056H12.3252L15.9124 8.7578L15.9124 5.54166L15.5411 5.17056Z" fill="url(#paint0_linear_1_192)"/>
<path d="M13.2209 5.54166L15.9126 5.54166L11.9543 1.58332L11.9543 4.27499C11.9543 4.97455 12.5214 5.54166 13.2209 5.54166Z" fill="#FBDE99"/>
</g>
<defs>
<filter id="filter0_ii_1_192" x="3.0874" y="1.50418" width="12.825" height="15.9917" filterUnits="userSpaceOnUse" color-interpolation-filters="sRGB">
<feFlood flood-opacity="0" result="BackgroundImageFix"/>
<feBlend mode="normal" in="SourceGraphic" in2="BackgroundImageFix" result="shape"/>
<feColorMatrix in="SourceAlpha" type="matrix" values="0 0 0 0 0 0 0 0 0 0 0 0 0 0 0 0 0 0 127 0" result="hardAlpha"/>
<feOffset dy="-0.158333"/>
<feGaussianBlur stdDeviation="0.0395833"/>
<feComposite in2="hardAlpha" operator="arithmetic" k2="-1" k3="1"/>
<feColorMatrix type="matrix" values="0 0 0 0 0 0 0 0 0 0 0 0 0 0 0 0 0 0 0.3 0"/>
<feBlend mode="normal" in2="shape" result="effect1_innerShadow_1_192"/>
<feColorMatrix in="SourceAlpha" type="matrix" values="0 0 0 0 0 0 0 0 0 0 0 0 0 0 0 0 0 0 127 0" result="hardAlpha"/>
<feOffset dy="0.158333"/>
<feGaussianBlur stdDeviation="0.0395833"/>
<feComposite in2="hardAlpha" operator="arithmetic" k2="-1" k3="1"/>
<feColorMatrix type="matrix" values="0 0 0 0 1 0 0 0 0 1 0 0 0 0 1 0 0 0 0.3 0"/>
<feBlend mode="normal" in2="effect1_innerShadow_1_192" result="effect2_innerShadow_1_192"/>
</filter>
<filter id="filter1_dd_1_192" x="4.875" y="6.125" width="16.8831" height="17.2831" filterUnits="userSpaceOnUse" color-interpolation-filters="sRGB">
<feFlood flood-opacity="0" result="BackgroundImageFix"/>
<feColorMatrix in="SourceAlpha" type="matrix" values="0 0 0 0 0 0 0 0 0 0 0 0 0 0 0 0 0 0 127 0" result="hardAlpha"/>
<feOffset dx="4" dy="6"/>
<feGaussianBlur stdDeviation="2"/>
<feColorMatrix type="matrix" values="0 0 0 0 0 0 0 0 0 0 0 0 0 0 0 0 0 0 0.1 0"/>
<feBlend mode="normal" in2="BackgroundImageFix" result="effect1_dropShadow_1_192"/>
<feColorMatrix in="SourceAlpha" type="matrix" values="0 0 0 0 0 0 0 0 0 0 0 0 0 0 0 0 0 0 127 0" result="hardAlpha"/>
<feOffset/>
<feGaussianBlur stdDeviation="0.5"/>
<feColorMatrix type="matrix" values="0 0 0 0 0 0 0 0 0 0 0 0 0 0 0 0 0 0 0.4 0"/>
<feBlend mode="normal" in2="effect1_dropShadow_1_192" result="effect2_dropShadow_1_192"/>
<feBlend mode="normal" in="SourceGraphic" in2="effect2_dropShadow_1_192" result="shape"/>
</filter>
<linearGradient id="paint0_linear_1_192" x1="13.1292" y1="4.36653" x2="16.7165" y2="7.95377" gradientUnits="userSpaceOnUse">
<stop stop-opacity="0.2"/>
<stop offset="1" stop-opacity="0"/>
</linearGradient>
<clipPath id="clip0_1_192">
<rect width="19" height="19" fill="white"/>
</clipPath>
</defs>
</svg>
